<svg width="74" height="31" viewBox="0 0 74 31" fill="none" xmlns="http://www.w3.org/2000/svg">
<path d="M72.9481 13.7328L59.7866 0.522146C59.4325 0.182637 58.9595 -0.00475199 58.469 9.16121e-05C57.9784 0.00493522 57.5092 0.201626 57.1619 0.548061C56.8145 0.894496 56.6166 1.36315 56.6105 1.85369C56.6043 2.34424 56.7905 2.8177 57.129 3.17272L67.0212 13.1001L2.49203 13.1001C2.23632 13.0844 1.98011 13.1212 1.73917 13.2083C1.49823 13.2954 1.27767 13.4309 1.09106 13.6064C0.904446 13.7819 0.755738 13.9938 0.654088 14.2289C0.552439 14.4641 0.5 14.7176 0.5 14.9738C0.5 15.2299 0.552439 15.4834 0.654088 15.7186C0.755738 15.9537 0.904446 16.1656 1.09106 16.3411C1.27767 16.5167 1.49823 16.6521 1.73917 16.7392C1.98011 16.8263 2.23632 16.8631 2.49203 16.8474H67.1689L57.1361 26.7678C56.9452 26.9374 56.7909 27.1442 56.6828 27.3756C56.5746 27.6069 56.5147 27.8579 56.5069 28.1131C56.4991 28.3684 56.5434 28.6226 56.6372 28.8601C56.731 29.0977 56.8722 29.3136 57.0523 29.4946C57.2324 29.6757 57.4476 29.8181 57.6846 29.9131C57.9217 30.0082 58.1756 30.0538 58.4309 30.0473C58.6862 30.0409 58.9375 29.9824 59.1694 29.8754C59.4013 29.7685 59.6089 29.6153 59.7796 29.4254L72.9411 16.3904C73.1158 16.2161 73.2545 16.009 73.3491 15.7809C73.4436 15.5529 73.4923 15.3085 73.4923 15.0616C73.4923 14.8148 73.4436 14.5704 73.3491 14.3423C73.2545 14.1143 73.1158 13.9072 72.9411 13.7328H72.9481Z" fill="white"/>
</svg>
